<mxfile host="app.diagrams.net" modified="2022-08-09T08:13:55.641Z" agent="5.0 (Windows NT 10.0; Win64; x64) AppleWebKit/537.36 (KHTML, like Gecko) Chrome/103.0.0.0 Safari/537.36" etag="Tn717y9lgZN3H7DCQ3Hd" version="20.2.3" type="github">
  <diagram id="EEZhN94f4LEBsW72IZI6" name="Page-1">
    <mxGraphModel dx="2302" dy="762" grid="1" gridSize="10" guides="1" tooltips="1" connect="1" arrows="1" fold="1" page="1" pageScale="1" pageWidth="827" pageHeight="1169" math="0" shadow="0">
      <root>
        <mxCell id="0" />
        <mxCell id="1" parent="0" />
        <mxCell id="qO-7zFccDFAbikHMk7qi-4" style="edgeStyle=orthogonalEdgeStyle;rounded=0;orthogonalLoop=1;jettySize=auto;html=1;entryX=0;entryY=0.5;entryDx=0;entryDy=0;" edge="1" parent="1" source="qO-7zFccDFAbikHMk7qi-2" target="qO-7zFccDFAbikHMk7qi-3">
          <mxGeometry relative="1" as="geometry" />
        </mxCell>
        <mxCell id="qO-7zFccDFAbikHMk7qi-2" value="Get Frame" style="rounded=1;whiteSpace=wrap;html=1;" vertex="1" parent="1">
          <mxGeometry x="70" y="70" width="120" height="40" as="geometry" />
        </mxCell>
        <mxCell id="qO-7zFccDFAbikHMk7qi-7" style="edgeStyle=orthogonalEdgeStyle;rounded=0;orthogonalLoop=1;jettySize=auto;html=1;entryX=0;entryY=0.5;entryDx=0;entryDy=0;" edge="1" parent="1" source="qO-7zFccDFAbikHMk7qi-3" target="qO-7zFccDFAbikHMk7qi-6">
          <mxGeometry relative="1" as="geometry" />
        </mxCell>
        <mxCell id="qO-7zFccDFAbikHMk7qi-9" style="edgeStyle=orthogonalEdgeStyle;rounded=0;orthogonalLoop=1;jettySize=auto;html=1;entryX=0.5;entryY=0;entryDx=0;entryDy=0;" edge="1" parent="1" source="qO-7zFccDFAbikHMk7qi-3" target="qO-7zFccDFAbikHMk7qi-8">
          <mxGeometry relative="1" as="geometry" />
        </mxCell>
        <mxCell id="qO-7zFccDFAbikHMk7qi-3" value="Exists" style="rounded=1;whiteSpace=wrap;html=1;" vertex="1" parent="1">
          <mxGeometry x="260" y="70" width="120" height="40" as="geometry" />
        </mxCell>
        <mxCell id="qO-7zFccDFAbikHMk7qi-6" value="Update in&lt;br&gt;TimeReview" style="rounded=1;whiteSpace=wrap;html=1;" vertex="1" parent="1">
          <mxGeometry x="470" y="65" width="120" height="50" as="geometry" />
        </mxCell>
        <mxCell id="qO-7zFccDFAbikHMk7qi-8" value="Add New in&lt;br&gt;TimeReview" style="rounded=1;whiteSpace=wrap;html=1;" vertex="1" parent="1">
          <mxGeometry x="260" y="150" width="120" height="50" as="geometry" />
        </mxCell>
      </root>
    </mxGraphModel>
  </diagram>
</mxfile>
